<?xml version="1.0" encoding="UTF-8"?>
<svg xmlns="http://www.w3.org/2000/svg" xmlns:xlink="http://www.w3.org/1999/xlink" viewBox="0 0 64 64" width="64px" height="64px">
<g id="surface30766023">
<path style=" stroke:none;fill-rule:nonzero;fill:rgb(99.215686%,56.078434%,42.745098%);fill-opacity:1;" d="M 5.015625 7.242188 L 10.480469 52.488281 C 10.675781 54.09375 11.816406 55.425781 13.382812 55.867188 L 30.914062 60.847656 C 31.625 61.046875 32.375 61.050781 33.089844 60.859375 L 51.53125 55.863281 C 53.144531 55.425781 54.320312 54.046875 54.484375 52.390625 L 59.035156 7.203125 C 59.152344 6.023438 58.21875 5 57.023438 5 L 7.019531 5 C 5.808594 5 4.871094 6.050781 5.015625 7.242188 Z M 5.015625 7.242188 "/>
<path style=" stroke:none;fill-rule:nonzero;fill:rgb(100%,65.098041%,54.509807%);fill-opacity:1;" d="M 52.355469 10 L 32 10 L 32 56 C 32.296875 56.003906 32.59375 55.960938 32.886719 55.878906 L 47.886719 51.507812 C 49.199219 51.125 50.15625 49.914062 50.289062 48.46875 L 53.992188 11.929688 C 54.089844 10.894531 53.328125 10 52.355469 10 Z M 52.355469 10 "/>
<path style=" stroke:none;fill-rule:nonzero;fill:rgb(47.450981%,80.392158%,80.000001%);fill-opacity:1;" d="M 32.023438 62 C 31.558594 62 31.09375 61.9375 30.644531 61.808594 L 13.105469 56.832031 C 11.152344 56.273438 9.730469 54.617188 9.488281 52.609375 L 4.019531 7.363281 C 3.917969 6.515625 4.1875 5.660156 4.753906 5.015625 C 5.328125 4.371094 6.152344 4 7.019531 4 L 57.027344 4 C 57.878906 4 58.699219 4.363281 59.269531 4.996094 C 59.835938 5.621094 60.113281 6.464844 60.03125 7.304688 L 55.480469 52.492188 C 55.273438 54.542969 53.792969 56.285156 51.792969 56.828125 L 33.351562 61.824219 C 32.914062 61.941406 32.472656 62 32.023438 62 Z M 7.019531 6 C 6.722656 6 6.449219 6.121094 6.253906 6.34375 C 6.058594 6.5625 5.972656 6.839844 6.007812 7.125 L 11.476562 52.371094 C 11.621094 53.574219 12.476562 54.570312 13.65625 54.90625 L 31.191406 59.882812 C 31.722656 60.035156 32.292969 60.039062 32.828125 59.894531 L 51.269531 54.898438 C 52.472656 54.570312 53.367188 53.523438 53.492188 52.292969 L 58.039062 7.105469 C 58.066406 6.820312 57.976562 6.546875 57.785156 6.335938 C 57.589844 6.117188 57.320312 6 57.023438 6 Z M 7.019531 6 "/>
<path style=" stroke:none;fill-rule:nonzero;fill:rgb(47.450981%,80.392158%,80.000001%);fill-opacity:1;" d="M 57 12 C 56.445312 12 56 11.550781 56 11 L 56 9 C 56 8.449219 56.445312 8 57 8 C 57.554688 8 58 8.449219 58 9 L 58 11 C 58 11.550781 57.554688 12 57 12 Z M 52 12 C 51.445312 12 51 11.550781 51 11 L 51 9 C 51 8.449219 51.445312 8 52 8 C 52.554688 8 53 8.449219 53 9 L 53 11 C 53 11.550781 52.554688 12 52 12 Z M 47 12 C 46.445312 12 46 11.550781 46 11 L 46 9 C 46 8.449219 46.445312 8 47 8 C 47.554688 8 48 8.449219 48 9 L 48 11 C 48 11.550781 47.554688 12 47 12 Z M 42 12 C 41.445312 12 41 11.550781 41 11 L 41 9 C 41 8.449219 41.445312 8 42 8 C 42.554688 8 43 8.449219 43 9 L 43 11 C 43 11.550781 42.554688 12 42 12 Z M 37 12 C 36.445312 12 36 11.550781 36 11 L 36 9 C 36 8.449219 36.445312 8 37 8 C 37.554688 8 38 8.449219 38 9 L 38 11 C 38 11.550781 37.554688 12 37 12 Z M 32 12 C 31.445312 12 31 11.550781 31 11 L 31 9 C 31 8.449219 31.445312 8 32 8 C 32.554688 8 33 8.449219 33 9 L 33 11 C 33 11.550781 32.554688 12 32 12 Z M 27 12 C 26.445312 12 26 11.550781 26 11 L 26 9 C 26 8.449219 26.445312 8 27 8 C 27.554688 8 28 8.449219 28 9 L 28 11 C 28 11.550781 27.554688 12 27 12 Z M 22 12 C 21.445312 12 21 11.550781 21 11 L 21 9 C 21 8.449219 21.445312 8 22 8 C 22.554688 8 23 8.449219 23 9 L 23 11 C 23 11.550781 22.554688 12 22 12 Z M 17 12 C 16.445312 12 16 11.550781 16 11 L 16 9 C 16 8.449219 16.445312 8 17 8 C 17.554688 8 18 8.449219 18 9 L 18 11 C 18 11.550781 17.554688 12 17 12 Z M 12 12 C 11.445312 12 11 11.550781 11 11 L 11 9 C 11 8.449219 11.445312 8 12 8 C 12.554688 8 13 8.449219 13 9 L 13 11 C 13 11.550781 12.554688 12 12 12 Z M 7 12 C 6.445312 12 6 11.550781 6 11 L 6 9 C 6 8.449219 6.445312 8 7 8 C 7.554688 8 8 8.449219 8 9 L 8 11 C 8 11.550781 7.554688 12 7 12 Z M 7 12 "/>
<path style=" stroke:none;fill-rule:nonzero;fill:rgb(98.039216%,93.725491%,87.058824%);fill-opacity:1;" d="M 24 19 C 24 27.332031 24 35.667969 24 44 C 21 43.332031 18 42.667969 15 42 C 15.203125 44 15.410156 46 15.613281 48 C 20.078125 49.273438 24.539062 50.542969 29 51.816406 L 29 19 C 27.332031 19 25.667969 19 24 19 Z M 24 19 "/>
<path style=" stroke:none;fill-rule:nonzero;fill:rgb(98.039216%,93.725491%,87.058824%);fill-opacity:1;" d="M 49.820312 24.046875 L 50.257812 19 C 45.171875 19 40.085938 19 35 19 C 35 26.332031 35 33.667969 35 41 C 37.980469 40.3125 40.964844 39.621094 43.945312 38.933594 L 43.628906 43.667969 C 40.753906 44.445312 37.878906 45.222656 35 46 C 35 48 35 50 35 52 C 39.242188 50.78125 43.488281 49.5625 47.730469 48.34375 L 49.0625 32.882812 C 46.042969 33.253906 43.019531 33.628906 40 34 C 40 30.667969 40 27.332031 40 24 C 43.273438 24.015625 46.546875 24.03125 49.820312 24.046875 Z M 49.820312 24.046875 "/>
<path style=" stroke:none;fill-rule:nonzero;fill:rgb(47.450981%,80.392158%,80.000001%);fill-opacity:1;" d="M 29 52.816406 C 28.90625 52.816406 28.816406 52.800781 28.726562 52.777344 L 15.339844 48.960938 C 14.945312 48.851562 14.660156 48.507812 14.621094 48.101562 L 14.003906 42.101562 C 13.972656 41.78125 14.097656 41.464844 14.335938 41.253906 C 14.574219 41.039062 14.902344 40.953125 15.21875 41.023438 L 23 42.753906 L 23 19 C 23 18.449219 23.445312 18 24 18 L 29 18 C 29.554688 18 30 18.449219 30 19 L 30 51.816406 C 30 52.128906 29.851562 52.425781 29.601562 52.613281 C 29.425781 52.746094 29.214844 52.816406 29 52.816406 Z M 16.539062 47.222656 L 28 50.488281 L 28 20 L 25 20 L 25 44 C 25 44.304688 24.863281 44.589844 24.625 44.78125 C 24.390625 44.96875 24.078125 45.042969 23.78125 44.976562 L 16.136719 43.277344 Z M 16.539062 47.222656 "/>
<path style=" stroke:none;fill-rule:nonzero;fill:rgb(47.450981%,80.392158%,80.000001%);fill-opacity:1;" d="M 35 53 C 34.785156 53 34.574219 52.929688 34.398438 52.800781 C 34.148438 52.609375 34 52.3125 34 52 L 34 46 C 34 45.546875 34.304688 45.152344 34.738281 45.035156 L 42.679688 42.886719 L 42.859375 40.210938 L 35.222656 41.972656 C 34.929688 42.046875 34.617188 41.972656 34.378906 41.78125 C 34.136719 41.59375 34 41.304688 34 41 L 34 19 C 34 18.449219 34.445312 18 35 18 L 50.257812 18 C 50.535156 18 50.804688 18.117188 50.992188 18.324219 C 51.183594 18.53125 51.277344 18.808594 51.253906 19.085938 L 50.816406 24.132812 C 50.773438 24.652344 50.296875 25.078125 49.816406 25.046875 L 41 25.003906 L 41 32.867188 L 48.941406 31.890625 C 49.234375 31.855469 49.539062 31.953125 49.757812 32.160156 C 49.972656 32.371094 50.085938 32.667969 50.058594 32.96875 L 48.726562 48.429688 C 48.691406 48.84375 48.40625 49.191406 48.007812 49.304688 L 35.277344 52.960938 C 35.1875 52.988281 35.09375 53 35 53 Z M 36 46.765625 L 36 50.671875 L 46.796875 47.574219 L 47.960938 34.027344 L 40.121094 34.992188 C 39.839844 35.027344 39.554688 34.9375 39.339844 34.75 C 39.121094 34.558594 39 34.285156 39 34 L 39 24 C 39 23.734375 39.105469 23.480469 39.296875 23.289062 C 39.484375 23.101562 39.707031 23.003906 40.003906 23 L 48.902344 23.042969 L 49.167969 20 L 36 20 L 36 39.742188 L 43.722656 37.960938 C 44.027344 37.886719 44.355469 37.96875 44.59375 38.171875 C 44.835938 38.378906 44.964844 38.683594 44.945312 39 L 44.628906 43.734375 C 44.601562 44.160156 44.304688 44.519531 43.890625 44.632812 Z M 36 46.765625 "/>
</g>
</svg>
