<?xml version="1.0" encoding="UTF-8"?>
<svg xmlns="http://www.w3.org/2000/svg" xmlns:xlink="http://www.w3.org/1999/xlink" viewBox="0 0 128 128" width="128px" height="128px">
<g id="surface335223383">
<path style=" stroke:none;fill-rule:nonzero;fill:rgb(99.215686%,56.078434%,42.745098%);fill-opacity:1;" d="M 10.03125 14.488281 L 20.960938 104.980469 C 21.351562 108.1875 23.636719 110.851562 26.761719 111.738281 L 61.832031 121.691406 C 63.25 122.09375 64.753906 122.105469 66.175781 121.71875 L 103.058594 111.726562 C 106.289062 110.851562 108.636719 108.09375 108.96875 104.785156 L 118.066406 14.410156 C 118.304688 12.046875 116.441406 10 114.050781 10 L 14.039062 10 C 11.617188 10 9.738281 12.101562 10.03125 14.488281 Z M 10.03125 14.488281 "/>
<path style=" stroke:none;fill-rule:nonzero;fill:rgb(100%,65.098041%,54.509807%);fill-opacity:1;" d="M 104.714844 20 L 64 20 L 64 112 C 64.597656 112.003906 65.191406 111.921875 65.769531 111.753906 L 95.773438 103.011719 C 98.398438 102.246094 100.3125 99.832031 100.582031 96.9375 L 107.984375 23.859375 C 108.175781 21.792969 106.65625 20 104.714844 20 Z M 104.714844 20 "/>
<path style=" stroke:none;fill-rule:nonzero;fill:rgb(47.450981%,80.392158%,80.000001%);fill-opacity:1;" d="M 64.050781 124 C 63.121094 124 62.191406 123.871094 61.285156 123.617188 L 26.214844 113.660156 C 22.300781 112.550781 19.460938 109.234375 18.976562 105.21875 L 8.042969 14.726562 C 7.835938 13.027344 8.371094 11.316406 9.507812 10.035156 C 10.65625 8.742188 12.304688 8 14.039062 8 L 114.050781 8 C 115.761719 8 117.394531 8.726562 118.539062 9.988281 C 119.675781 11.246094 120.230469 12.929688 120.058594 14.613281 L 110.960938 104.984375 C 110.546875 109.085938 107.585938 112.570312 103.585938 113.65625 L 66.699219 123.648438 C 65.832031 123.882812 64.941406 124 64.050781 124 Z M 14.039062 12 C 13.441406 12 12.898438 12.242188 12.503906 12.6875 C 12.121094 13.121094 11.945312 13.675781 12.015625 14.246094 L 22.949219 104.738281 C 23.242188 107.152344 24.953125 109.144531 27.308594 109.8125 L 62.378906 119.769531 C 63.445312 120.070312 64.585938 120.078125 65.652344 119.785156 L 102.539062 109.792969 C 104.949219 109.140625 106.734375 107.046875 106.980469 104.585938 L 116.078125 14.210938 C 116.136719 13.640625 115.957031 13.097656 115.574219 12.671875 C 115.179688 12.238281 114.636719 12 114.050781 12 Z M 14.039062 12 "/>
<path style=" stroke:none;fill-rule:nonzero;fill:rgb(47.450981%,80.392158%,80.000001%);fill-opacity:1;" d="M 114 24 C 112.894531 24 112 23.105469 112 22 L 112 18 C 112 16.894531 112.894531 16 114 16 C 115.105469 16 116 16.894531 116 18 L 116 22 C 116 23.105469 115.105469 24 114 24 Z M 104 24 C 102.894531 24 102 23.105469 102 22 L 102 18 C 102 16.894531 102.894531 16 104 16 C 105.105469 16 106 16.894531 106 18 L 106 22 C 106 23.105469 105.105469 24 104 24 Z M 94 24 C 92.894531 24 92 23.105469 92 22 L 92 18 C 92 16.894531 92.894531 16 94 16 C 95.105469 16 96 16.894531 96 18 L 96 22 C 96 23.105469 95.105469 24 94 24 Z M 84 24 C 82.894531 24 82 23.105469 82 22 L 82 18 C 82 16.894531 82.894531 16 84 16 C 85.105469 16 86 16.894531 86 18 L 86 22 C 86 23.105469 85.105469 24 84 24 Z M 74 24 C 72.894531 24 72 23.105469 72 22 L 72 18 C 72 16.894531 72.894531 16 74 16 C 75.105469 16 76 16.894531 76 18 L 76 22 C 76 23.105469 75.105469 24 74 24 Z M 64 24 C 62.894531 24 62 23.105469 62 22 L 62 18 C 62 16.894531 62.894531 16 64 16 C 65.105469 16 66 16.894531 66 18 L 66 22 C 66 23.105469 65.105469 24 64 24 Z M 54 24 C 52.894531 24 52 23.105469 52 22 L 52 18 C 52 16.894531 52.894531 16 54 16 C 55.105469 16 56 16.894531 56 18 L 56 22 C 56 23.105469 55.105469 24 54 24 Z M 44 24 C 42.894531 24 42 23.105469 42 22 L 42 18 C 42 16.894531 42.894531 16 44 16 C 45.105469 16 46 16.894531 46 18 L 46 22 C 46 23.105469 45.105469 24 44 24 Z M 34 24 C 32.894531 24 32 23.105469 32 22 L 32 18 C 32 16.894531 32.894531 16 34 16 C 35.105469 16 36 16.894531 36 18 L 36 22 C 36 23.105469 35.105469 24 34 24 Z M 24 24 C 22.894531 24 22 23.105469 22 22 L 22 18 C 22 16.894531 22.894531 16 24 16 C 25.105469 16 26 16.894531 26 18 L 26 22 C 26 23.105469 25.105469 24 24 24 Z M 14 24 C 12.894531 24 12 23.105469 12 22 L 12 18 C 12 16.894531 12.894531 16 14 16 C 15.105469 16 16 16.894531 16 18 L 16 22 C 16 23.105469 15.105469 24 14 24 Z M 14 24 "/>
<path style=" stroke:none;fill-rule:nonzero;fill:rgb(98.039216%,93.725491%,87.058824%);fill-opacity:1;" d="M 48 38 C 48 54.664062 48 71.335938 48 88 C 42 86.664062 36 85.335938 30 84 C 30.410156 88 30.820312 92 31.230469 96 C 40.152344 98.542969 49.074219 101.085938 58 103.628906 L 58 38 C 54.664062 38 51.335938 38 48 38 Z M 48 38 "/>
<path style=" stroke:none;fill-rule:nonzero;fill:rgb(98.039216%,93.725491%,87.058824%);fill-opacity:1;" d="M 99.640625 48.097656 L 100.511719 38 C 90.34375 38 80.171875 38 70 38 C 70 52.664062 70 67.335938 70 82 C 75.964844 80.621094 81.929688 79.242188 87.890625 77.867188 L 87.261719 87.335938 C 81.507812 88.886719 75.753906 90.445312 70 92 C 70 96 70 100 70 104 C 78.488281 101.5625 86.976562 99.125 95.464844 96.6875 L 98.125 65.765625 C 92.085938 66.511719 86.042969 67.257812 80 68 C 80 61.335938 80 54.664062 80 48 C 86.546875 48.03125 93.09375 48.0625 99.640625 48.097656 Z M 99.640625 48.097656 "/>
<path style=" stroke:none;fill-rule:nonzero;fill:rgb(47.450981%,80.392158%,80.000001%);fill-opacity:1;" d="M 58 105.628906 C 57.816406 105.628906 57.632812 105.605469 57.453125 105.554688 L 30.683594 97.925781 C 29.894531 97.699219 29.324219 97.019531 29.238281 96.203125 L 28.011719 84.203125 C 27.945312 83.5625 28.191406 82.933594 28.671875 82.507812 C 29.152344 82.078125 29.804688 81.90625 30.433594 82.046875 L 46 85.507812 L 46 38 C 46 36.894531 46.894531 36 48 36 L 58 36 C 59.105469 36 60 36.894531 60 38 L 60 103.628906 C 60 104.257812 59.707031 104.847656 59.207031 105.226562 C 58.855469 105.492188 58.429688 105.628906 58 105.628906 Z M 33.082031 94.449219 L 56 100.980469 L 56 40 L 50 40 L 50 88 C 50 88.605469 49.722656 89.179688 49.253906 89.558594 C 48.777344 89.941406 48.160156 90.085938 47.566406 89.953125 L 32.273438 86.554688 Z M 33.082031 94.449219 "/>
<path style=" stroke:none;fill-rule:nonzero;fill:rgb(47.450981%,80.392158%,80.000001%);fill-opacity:1;" d="M 70 106 C 69.570312 106 69.148438 105.863281 68.796875 105.597656 C 68.292969 105.21875 68 104.628906 68 104 L 68 92 C 68 91.097656 68.605469 90.304688 69.476562 90.070312 L 85.359375 85.777344 L 85.714844 80.421875 L 70.449219 83.949219 C 69.863281 84.089844 69.234375 83.945312 68.753906 83.566406 C 68.273438 83.1875 68 82.609375 68 82 L 68 38 C 68 36.894531 68.894531 36 70 36 L 100.515625 36 C 101.074219 36 101.609375 36.234375 101.988281 36.648438 C 102.367188 37.0625 102.554688 37.613281 102.507812 38.171875 L 101.632812 48.269531 C 101.546875 49.304688 100.59375 50.160156 99.632812 50.097656 L 82 50.011719 L 82 65.738281 L 97.878906 63.78125 C 98.472656 63.707031 99.078125 63.90625 99.511719 64.324219 C 99.945312 64.742188 100.167969 65.335938 100.117188 65.9375 L 97.457031 96.859375 C 97.386719 97.683594 96.8125 98.378906 96.015625 98.609375 L 70.550781 105.917969 C 70.371094 105.972656 70.1875 106 70 106 Z M 72 93.53125 L 72 101.347656 L 93.589844 95.144531 L 95.921875 68.054688 L 80.242188 69.984375 C 79.683594 70.054688 79.105469 69.878906 78.675781 69.496094 C 78.246094 69.117188 78 68.574219 78 68 L 78 48 C 78 47.46875 78.210938 46.957031 78.589844 46.582031 C 78.96875 46.207031 79.414062 46.011719 80.011719 46 L 97.808594 46.089844 L 98.335938 40 L 72 40 L 72 79.484375 L 87.445312 75.921875 C 88.058594 75.773438 88.707031 75.933594 89.191406 76.347656 C 89.671875 76.757812 89.929688 77.371094 89.890625 78.003906 L 89.257812 87.46875 C 89.203125 88.320312 88.609375 89.042969 87.785156 89.265625 Z M 72 93.53125 "/>
</g>
</svg>
