<svg xmlns="http://www.w3.org/2000/svg" xmlns:xlink="http://www.w3.org/1999/xlink" viewBox="0 0 512 512" width="512px" height="512px">
<g id="surface30765898">
<path style=" stroke:none;fill-rule:nonzero;fill:rgb(99.215686%,56.078434%,42.745098%);fill-opacity:1;" d="M 40.121094 57.953125 L 83.847656 419.921875 C 85.398438 432.742188 94.542969 443.398438 107.046875 446.953125 L 247.328125 486.769531 C 253 488.375 259.007812 488.414062 264.703125 486.871094 L 412.238281 446.902344 C 425.152344 443.40625 434.550781 432.367188 435.878906 419.136719 L 472.273438 57.640625 C 473.222656 48.191406 465.761719 40 456.199219 40 L 56.152344 40 C 46.472656 40 38.960938 48.40625 40.121094 57.953125 Z M 40.121094 57.953125 "/>
<path style=" stroke:none;fill-rule:nonzero;fill:rgb(100%,65.098041%,54.509807%);fill-opacity:1;" d="M 418.855469 80 L 256 80 L 256 448 C 258.382812 448.015625 260.761719 447.6875 263.078125 447.015625 L 383.097656 412.046875 C 393.601562 408.992188 401.246094 399.328125 402.328125 387.753906 L 431.9375 95.441406 C 432.703125 87.167969 426.632812 80 418.855469 80 Z M 418.855469 80 "/>
<path style=" stroke:none;fill-rule:nonzero;fill:rgb(47.450981%,80.392158%,80.000001%);fill-opacity:1;" d="M 256.199219 496 C 252.480469 496 248.761719 495.488281 245.144531 494.472656 L 104.855469 454.648438 C 89.207031 450.199219 77.839844 436.945312 75.902344 420.878906 L 32.167969 58.910156 C 31.34375 52.113281 33.488281 45.273438 38.03125 40.136719 C 42.625 34.96875 49.222656 32 56.152344 32 L 456.207031 32 C 463.039062 32 469.585938 34.902344 474.160156 39.960938 C 478.695312 44.984375 480.921875 51.71875 480.238281 58.449219 L 443.839844 419.9375 C 442.191406 436.34375 430.335938 450.289062 414.335938 454.625 L 266.800781 494.59375 C 263.328125 495.527344 259.769531 496 256.199219 496 Z M 56.152344 48 C 53.769531 48 51.59375 48.976562 50.015625 50.753906 C 48.480469 52.488281 47.785156 54.703125 48.0625 56.992188 L 91.800781 418.960938 C 92.96875 428.609375 99.808594 436.574219 109.238281 439.257812 L 249.519531 479.070312 C 253.785156 480.289062 258.34375 480.3125 262.617188 479.144531 L 410.152344 439.175781 C 419.792969 436.566406 426.9375 428.183594 427.929688 418.335938 L 464.320312 56.839844 C 464.542969 54.566406 463.824219 52.382812 462.296875 50.6875 C 460.71875 48.953125 458.550781 48 456.199219 48 Z M 56.152344 48 "/>
<path style=" stroke:none;fill-rule:nonzero;fill:rgb(47.450981%,80.392158%,80.000001%);fill-opacity:1;" d="M 456 96 C 451.574219 96 448 92.414062 448 88 L 448 72 C 448 67.585938 451.574219 64 456 64 C 460.425781 64 464 67.585938 464 72 L 464 88 C 464 92.414062 460.425781 96 456 96 Z M 416 96 C 411.574219 96 408 92.414062 408 88 L 408 72 C 408 67.585938 411.574219 64 416 64 C 420.425781 64 424 67.585938 424 72 L 424 88 C 424 92.414062 420.425781 96 416 96 Z M 376 96 C 371.574219 96 368 92.414062 368 88 L 368 72 C 368 67.585938 371.574219 64 376 64 C 380.425781 64 384 67.585938 384 72 L 384 88 C 384 92.414062 380.425781 96 376 96 Z M 336 96 C 331.574219 96 328 92.414062 328 88 L 328 72 C 328 67.585938 331.574219 64 336 64 C 340.425781 64 344 67.585938 344 72 L 344 88 C 344 92.414062 340.425781 96 336 96 Z M 296 96 C 291.574219 96 288 92.414062 288 88 L 288 72 C 288 67.585938 291.574219 64 296 64 C 300.425781 64 304 67.585938 304 72 L 304 88 C 304 92.414062 300.425781 96 296 96 Z M 256 96 C 251.574219 96 248 92.414062 248 88 L 248 72 C 248 67.585938 251.574219 64 256 64 C 260.425781 64 264 67.585938 264 72 L 264 88 C 264 92.414062 260.425781 96 256 96 Z M 216 96 C 211.574219 96 208 92.414062 208 88 L 208 72 C 208 67.585938 211.574219 64 216 64 C 220.425781 64 224 67.585938 224 72 L 224 88 C 224 92.414062 220.425781 96 216 96 Z M 176 96 C 171.574219 96 168 92.414062 168 88 L 168 72 C 168 67.585938 171.574219 64 176 64 C 180.425781 64 184 67.585938 184 72 L 184 88 C 184 92.414062 180.425781 96 176 96 Z M 136 96 C 131.574219 96 128 92.414062 128 88 L 128 72 C 128 67.585938 131.574219 64 136 64 C 140.425781 64 144 67.585938 144 72 L 144 88 C 144 92.414062 140.425781 96 136 96 Z M 96 96 C 91.574219 96 88 92.414062 88 88 L 88 72 C 88 67.585938 91.574219 64 96 64 C 100.425781 64 104 67.585938 104 72 L 104 88 C 104 92.414062 100.425781 96 96 96 Z M 56 96 C 51.574219 96 48 92.414062 48 88 L 48 72 C 48 67.585938 51.574219 64 56 64 C 60.425781 64 64 67.585938 64 72 L 64 88 C 64 92.414062 60.425781 96 56 96 Z M 56 96 "/>
<path style=" stroke:none;fill-rule:nonzero;fill:rgb(98.039216%,93.725491%,87.058824%);fill-opacity:1;" d="M 192 152 C 192 218.664062 192 285.335938 192 352 C 168 346.664062 144 341.335938 120 336 C 121.640625 352 123.28125 368 124.921875 384 C 160.617188 394.175781 196.304688 404.34375 232 414.519531 L 232 152 C 218.664062 152 205.335938 152 192 152 Z M 192 152 "/>
<path style=" stroke:none;fill-rule:nonzero;fill:rgb(98.039216%,93.725491%,87.058824%);fill-opacity:1;" d="M 398.566406 192.382812 L 402.046875 152 C 361.367188 152 320.679688 152 280 152 C 280 210.664062 280 269.335938 280 328 C 303.855469 322.488281 327.710938 316.976562 351.566406 311.472656 L 349.039062 349.335938 C 326.03125 355.550781 303.015625 361.777344 280 368 C 280 384 280 400 280 416 C 313.953125 406.246094 347.902344 396.503906 381.855469 386.753906 L 392.496094 263.0625 C 368.335938 266.039062 344.167969 269.023438 320 272 C 320 245.335938 320 218.664062 320 192 C 346.191406 192.128906 372.375 192.257812 398.566406 192.382812 Z M 398.566406 192.382812 "/>
<path style=" stroke:none;fill-rule:nonzero;fill:rgb(47.450981%,80.392158%,80.000001%);fill-opacity:1;" d="M 232 422.519531 C 231.265625 422.519531 230.527344 422.414062 229.808594 422.214844 L 122.726562 391.695312 C 119.574219 390.800781 117.296875 388.070312 116.960938 384.816406 L 112.039062 336.816406 C 111.785156 334.257812 112.769531 331.726562 114.679688 330.023438 C 116.609375 328.3125 119.214844 327.632812 121.734375 328.191406 L 184 342.023438 L 184 152 C 184 147.585938 187.574219 144 192 144 L 232 144 C 236.425781 144 240 147.585938 240 152 L 240 414.519531 C 240 417.023438 238.824219 419.390625 236.824219 420.902344 C 235.414062 421.96875 233.71875 422.519531 232 422.519531 Z M 132.328125 377.792969 L 224 403.921875 L 224 160 L 200 160 L 200 352 C 200 354.425781 198.894531 356.71875 197.007812 358.238281 C 195.113281 359.761719 192.640625 360.335938 190.265625 359.808594 L 129.089844 346.214844 Z M 132.328125 377.792969 "/>
<path style=" stroke:none;fill-rule:nonzero;fill:rgb(47.450981%,80.392158%,80.000001%);fill-opacity:1;" d="M 280 424 C 278.28125 424 276.59375 423.449219 275.183594 422.390625 C 273.175781 420.878906 272 418.511719 272 416 L 272 368 C 272 364.382812 274.425781 361.214844 277.910156 360.28125 L 341.433594 343.105469 L 342.863281 321.6875 L 281.792969 335.792969 C 279.449219 336.359375 276.9375 335.785156 275.015625 334.265625 C 273.097656 332.742188 272 330.441406 272 328 L 272 152 C 272 147.582031 275.574219 144 280 144 L 402.054688 144 C 404.296875 144 406.441406 144.945312 407.953125 146.59375 C 409.464844 148.246094 410.214844 150.457031 410.023438 152.6875 L 406.535156 193.070312 C 406.183594 197.222656 402.367188 200.640625 398.527344 200.382812 L 328 200.039062 L 328 262.953125 L 391.519531 255.121094 C 393.886719 254.832031 396.3125 255.625 398.046875 257.296875 C 399.785156 258.96875 400.671875 261.335938 400.464844 263.742188 L 389.824219 387.433594 C 389.542969 390.734375 387.246094 393.519531 384.0625 394.433594 L 282.207031 423.671875 C 281.488281 423.894531 280.742188 424 280 424 Z M 288 374.128906 L 288 405.382812 L 374.359375 380.585938 L 383.679688 272.214844 L 320.976562 279.945312 C 318.726562 280.214844 316.425781 279.511719 314.703125 277.992188 C 312.984375 276.472656 312 274.296875 312 272 L 312 192 C 312 189.871094 312.847656 187.832031 314.359375 186.328125 C 315.871094 184.824219 317.664062 184.039062 320.039062 184 L 391.230469 184.351562 L 393.335938 160 L 288 160 L 288 317.945312 L 349.777344 303.679688 C 352.230469 303.097656 354.832031 303.734375 356.761719 305.382812 C 358.6875 307.023438 359.71875 309.480469 359.558594 312.007812 L 357.03125 349.871094 C 356.808594 353.28125 354.433594 356.167969 351.136719 357.054688 Z M 288 374.128906 "/>
</g>
</svg>
